<?xml version="1.0" encoding="iso-8859-1"?>
<!-- Generator: Adobe Illustrator 18.0.0, SVG Export Plug-In . SVG Version: 6.00 Build 0)  -->
<!DOCTYPE svg PUBLIC "-//W3C//DTD SVG 1.1//EN" "http://www.w3.org/Graphics/SVG/1.1/DTD/svg11.dtd">
<svg version="1.1" id="Capa_1" xmlns="http://www.w3.org/2000/svg" xmlns:xlink="http://www.w3.org/1999/xlink" x="0px" y="0px"
	 viewBox="0 0 477.774 477.774" style="enable-background:new 0 0 477.774 477.774;" xml:space="preserve">
<g>
	<path d="M169.613,379.673l-64.589-207.565c-1.619-5.203-6.433-8.75-11.88-8.75c-5.445,0-10.258,3.541-11.881,8.75L16.661,379.673
		c-6.078,0.445-11.588,3.824-14.506,9.238c-3.129,5.793-2.836,12.846,0.777,18.355c19.255,29.367,52.463,48.77,90.211,48.77
		c37.748,0,70.941-19.402,90.211-48.77c3.615-5.51,3.923-12.568,0.779-18.363C181.218,383.482,175.691,380.111,169.613,379.673z
		 M42.788,379.503L93.144,217.7l50.343,161.803H42.788z"/>
	<path d="M475.611,388.904c-2.916-5.422-8.428-8.793-14.522-9.23l-64.585-207.565c-1.621-5.203-6.435-8.75-11.883-8.75
		c-5.445,0-10.259,3.541-11.879,8.75l-64.602,207.565c-6.079,0.445-11.589,3.824-14.507,9.238
		c-3.129,5.793-2.835,12.846,0.779,18.355c19.254,29.359,52.462,48.752,90.209,48.752c37.75,0,70.943-19.393,90.213-48.752
		C478.448,401.757,478.757,394.704,475.611,388.904z M334.249,379.503l50.371-161.811l50.359,161.811H334.249z"/>
	<path d="M34.537,142.952h150.667c-1.639-5.285-2.771-10.785-2.771-16.596c0-4.004,0.939-9.611,2.689-16.598H34.537
		c-9.173,0-16.597,7.43-16.597,16.598C17.941,135.521,25.365,142.952,34.537,142.952z"/>
	<path d="M443.228,142.952c9.175,0,16.598-7.432,16.598-16.596c0-9.168-7.423-16.598-16.598-16.598H292.644
		c1.75,6.986,2.69,12.594,2.69,16.598c0,5.811-1.136,11.311-2.772,16.596H443.228z"/>
	<path d="M238.884,21.738c-1.67,0-3.178,0.988-3.841,2.51c-22.563,51.832-36.015,90.002-36.015,102.109
		c0,21.967,17.878,39.846,39.855,39.846c21.977,0,39.853-17.879,39.853-39.846c0-12.115-13.453-50.285-35.996-102.092
		C242.06,22.726,240.552,21.738,238.884,21.738z M256.518,126.357c0,9.738-7.895,17.635-17.634,17.635
		c-9.742,0-17.637-7.896-17.637-17.635c0-9.742,7.895-17.635,17.637-17.635C248.623,108.722,256.518,116.615,256.518,126.357z"/>
</g>
<g>
</g>
<g>
</g>
<g>
</g>
<g>
</g>
<g>
</g>
<g>
</g>
<g>
</g>
<g>
</g>
<g>
</g>
<g>
</g>
<g>
</g>
<g>
</g>
<g>
</g>
<g>
</g>
<g>
</g>
</svg>
